<svg xmlns="http://www.w3.org/2000/svg" viewBox="0 0 214 100">
  <style>
    g { stroke: #00897B; }
    @media (prefers-color-scheme: dark) { g { stroke: #4DB6AC; } }
  </style>
  <g fill="none" stroke-width="8" stroke-linecap="round" stroke-linejoin="round">
    <!-- | -->
    <line x1="12" y1="22" x2="12" y2="78"/>
    <!-- Q -->
    <circle cx="50" cy="46" r="21"/>
    <line x1="63" y1="60" x2="74" y2="73"/>
    <!-- m -->
    <path d="M 82,67 L 82,40"/>
    <path d="M 82,48 C 82,41 86,39 90,39 C 96,39 98,44 98,50 L 98,67"/>
    <path d="M 98,48 C 98,41 102,39 106,39 C 112,39 114,44 114,50 L 114,67"/>
    <!-- e -->
    <path d="M 123,54 L 145,54 C 145,44 141,39 134,39 C 126,39 122,45 122,53 C 122,61 126,67 134,67 C 139,67 142,65 144,62"/>
    <!-- s -->
    <path d="M 172,43 C 170,40 166,39 162,39 C 157,39 154,41 154,45 C 154,49 158,51 163,53 C 168,55 172,57 172,61 C 172,65 168,67 163,67 C 159,67 155,66 153,63"/>
    <!-- ⟩ -->
    <polyline points="186,22 200,50 186,78"/>
  </g>
</svg>
